<svg width="152" height="23" viewBox="0 0 152 23" fill="none" xmlns="http://www.w3.org/2000/svg">
<path d="M8.99839 22.8227C7.30256 22.8227 5.77435 22.4715 4.41374 21.7689C3.07286 21.0463 2.01789 20.0527 1.24886 18.7881C0.499537 17.5235 0.124878 16.0883 0.124878 14.4825C0.124878 12.8767 0.499537 11.4415 1.24886 10.1769C2.01789 8.91233 3.07286 7.92876 4.41374 7.22622C5.77435 6.5036 7.30256 6.14229 8.99839 6.14229C10.6745 6.14229 12.1337 6.5036 13.376 7.22622C14.638 7.92876 15.5549 8.94243 16.1268 10.2672L12.5478 12.2243C11.7196 10.7389 10.5266 9.99625 8.96881 9.99625C7.76596 9.99625 6.77015 10.3977 5.9814 11.2006C5.19264 12.0035 4.79826 13.0975 4.79826 14.4825C4.79826 15.8675 5.19264 16.9615 5.9814 17.7644C6.77015 18.5673 7.76596 18.9688 8.96881 18.9688C10.5463 18.9688 11.7393 18.2261 12.5478 16.7407L16.1268 18.7279C15.5549 20.0125 14.638 21.0162 13.376 21.7388C12.1337 22.4614 10.6745 22.8227 8.99839 22.8227ZM24.6745 22.8227C22.9984 22.8227 21.4899 22.4715 20.149 21.7689C18.8278 21.0463 17.7926 20.0527 17.0433 18.7881C16.2939 17.5235 15.9193 16.0883 15.9193 14.4825C15.9193 12.8767 16.2939 11.4415 17.0433 10.1769C17.7926 8.91233 18.8278 7.92876 20.149 7.22622C21.4899 6.5036 22.9984 6.14229 24.6745 6.14229C26.3506 6.14229 27.8492 6.5036 29.1704 7.22622C30.4916 7.92876 31.5268 8.91233 32.2761 10.1769C33.0254 11.4415 33.4001 12.8767 33.4001 14.4825C33.4001 16.0883 33.0254 17.5235 32.2761 18.7881C31.5268 20.0527 30.4916 21.0463 29.1704 21.7689C27.8492 22.4715 26.3506 22.8227 24.6745 22.8227ZM24.6745 18.9688C25.8576 18.9688 26.8238 18.5673 27.5732 17.7644C28.3422 16.9414 28.7267 15.8475 28.7267 14.4825C28.7267 13.1176 28.3422 12.0336 27.5732 11.2307C26.8238 10.4077 25.8576 9.99625 24.6745 9.99625C23.4913 9.99625 22.5153 10.4077 21.7462 11.2307C20.9772 12.0336 20.5927 13.1176 20.5927 14.4825C20.5927 15.8475 20.9772 16.9414 21.7462 17.7644C22.5153 18.5673 23.4913 18.9688 24.6745 18.9688ZM39.4126 8.52091C39.9647 7.73807 40.7042 7.14592 41.6311 6.74447C42.5777 6.34302 43.6622 6.14229 44.8848 6.14229V10.478C44.3721 10.4379 44.027 10.4178 43.8495 10.4178C42.5284 10.4178 41.4931 10.7992 40.7436 11.5619C39.9943 12.3046 39.6197 13.4287 39.6197 14.9341V22.5819H35.0054V6.38316H39.4126V8.52091ZM61.5929 14.5427C61.5929 14.6029 61.5633 15.0245 61.5041 15.8073H49.4657C49.6826 16.8109 50.1953 17.6038 51.0038 18.1859C51.8123 18.768 52.8179 19.0591 54.0208 19.0591C54.849 19.0591 55.5786 18.9387 56.2096 18.6978C56.8603 18.4368 57.4617 18.0354 58.0139 17.4934L60.4689 20.2032C58.9702 21.9496 56.7814 22.8227 53.9025 22.8227C52.1081 22.8227 50.5207 22.4715 49.1404 21.7689C47.76 21.0463 46.6952 20.0527 45.9459 18.7881C45.1966 17.5235 44.8219 16.0883 44.8219 14.4825C44.8219 12.8968 45.1867 11.4716 45.9163 10.207C46.6656 8.92236 47.6812 7.92876 48.9629 7.22622C50.2643 6.5036 51.7137 6.14229 53.3109 6.14229C54.8687 6.14229 56.2786 6.48353 57.5406 7.166C58.8026 7.84847 59.7886 8.83203 60.4985 10.1167C61.2281 11.3813 61.5929 12.8566 61.5929 14.5427ZM53.3405 9.69516C52.2954 9.69516 51.4179 9.99625 50.708 10.5984C49.9981 11.2006 49.5643 12.0236 49.4066 13.0674H57.2448C57.0871 12.0437 56.6533 11.2307 55.9434 10.6285C55.2335 10.0063 54.3659 9.69516 53.3405 9.69516ZM68.5393 22.8227C67.2181 22.8227 65.9265 22.6621 64.6645 22.341C63.4025 21.9997 62.3968 21.5782 61.6475 21.0764L63.1856 17.7042C63.8955 18.1659 64.7532 18.5472 65.7589 18.8483C66.7646 19.1293 67.7505 19.2699 68.7167 19.2699C70.6689 19.2699 71.645 18.7781 71.645 17.7945C71.645 17.3328 71.3788 17.0016 70.8464 16.8009C70.314 16.6002 69.4956 16.4296 68.3914 16.2891C67.0899 16.0883 66.0152 15.8575 65.1673 15.5965C64.3194 15.3356 63.58 14.8739 62.9489 14.2115C62.3377 13.5491 62.032 12.6057 62.032 11.3813C62.032 10.3576 62.3179 9.45429 62.8898 8.67145C63.4814 7.86854 64.3293 7.24629 65.4335 6.80469C66.5575 6.36309 67.8787 6.14229 69.397 6.14229C70.521 6.14229 71.6351 6.27276 72.7394 6.53371C73.8634 6.77458 74.7902 7.11582 75.5198 7.55742L73.9817 10.8995C72.5816 10.0966 71.0534 9.69516 69.397 9.69516C68.4111 9.69516 67.6716 9.83567 67.1787 10.1167C66.6857 10.3977 66.4392 10.759 66.4392 11.2006C66.4392 11.7024 66.7054 12.0537 67.2378 12.2544C67.7702 12.4552 68.6181 12.6459 69.7816 12.8265C71.083 13.0473 72.1478 13.2882 72.976 13.5491C73.8042 13.79 74.524 14.2416 75.1352 14.904C75.7465 15.5664 76.0522 16.4898 76.0522 17.6741C76.0522 18.6777 75.7564 19.5709 75.1648 20.3538C74.5732 21.1366 73.7056 21.7488 72.5619 22.1904C71.4379 22.612 70.0971 22.8227 68.5393 22.8227ZM87.0923 6.14229C89.0642 6.14229 90.6516 6.74447 91.8544 7.94883C93.077 9.1532 93.6883 10.9397 93.6883 13.3083V22.5819H89.074V14.0309C89.074 12.7462 88.798 11.7928 88.2459 11.1705C87.6937 10.5282 86.8951 10.207 85.85 10.207C84.6866 10.207 83.7598 10.5784 83.0696 11.3211C82.3795 12.0437 82.0344 13.1276 82.0344 14.5728V22.5819H77.4202V0.240906H82.0344V8.06927C82.6457 7.44702 83.3851 6.97531 84.2528 6.65414C85.1204 6.31291 86.0669 6.14229 87.0923 6.14229ZM104.138 22.8227C102.462 22.8227 100.953 22.4715 99.6122 21.7689C98.291 21.0463 97.2558 20.0527 96.5064 18.7881C95.7571 17.5235 95.3825 16.0883 95.3825 14.4825C95.3825 12.8767 95.7571 11.4415 96.5064 10.1769C97.2558 8.91233 98.291 7.92876 99.6122 7.22622C100.953 6.5036 102.462 6.14229 104.138 6.14229C105.814 6.14229 107.312 6.5036 108.634 7.22622C109.955 7.92876 110.99 8.91233 111.739 10.1769C112.489 11.4415 112.863 12.8767 112.863 14.4825C112.863 16.0883 112.489 17.5235 111.739 18.7881C110.99 20.0527 109.955 21.0463 108.634 21.7689C107.312 22.4715 105.814 22.8227 104.138 22.8227ZM104.138 18.9688C105.321 18.9688 106.287 18.5673 107.036 17.7644C107.805 16.9414 108.19 15.8475 108.19 14.4825C108.19 13.1176 107.805 12.0336 107.036 11.2307C106.287 10.4077 105.321 9.99625 104.138 9.99625C102.955 9.99625 101.978 10.4077 101.209 11.2307C100.44 12.0336 100.056 13.1176 100.056 14.4825C100.056 15.8475 100.44 16.9414 101.209 17.7644C101.978 18.5673 102.955 18.9688 104.138 18.9688ZM130.056 14.5427C130.056 14.6029 130.027 15.0245 129.967 15.8073H117.929C118.146 16.8109 118.659 17.6038 119.467 18.1859C120.276 18.768 121.281 19.0591 122.484 19.0591C123.312 19.0591 124.042 18.9387 124.673 18.6978C125.324 18.4368 125.925 18.0354 126.477 17.4934L128.932 20.2032C127.434 21.9496 125.245 22.8227 122.366 22.8227C120.571 22.8227 118.984 22.4715 117.604 21.7689C116.223 21.0463 115.158 20.0527 114.409 18.7881C113.66 17.5235 113.285 16.0883 113.285 14.4825C113.285 12.8968 113.65 11.4716 114.38 10.207C115.129 8.92236 116.144 7.92876 117.426 7.22622C118.728 6.5036 120.177 6.14229 121.774 6.14229C123.332 6.14229 124.742 6.48353 126.004 7.166C127.266 7.84847 128.252 8.83203 128.962 10.1167C129.691 11.3813 130.056 12.8566 130.056 14.5427ZM121.804 9.69516C120.759 9.69516 119.881 9.99625 119.171 10.5984C118.461 11.2006 118.028 12.0236 117.87 13.0674H125.708C125.55 12.0437 125.117 11.2307 124.407 10.6285C123.697 10.0063 122.829 9.69516 121.804 9.69516ZM137.003 22.8227C135.682 22.8227 134.39 22.6621 133.128 22.341C131.866 21.9997 130.86 21.5782 130.111 21.0764L131.649 17.7042C132.359 18.1659 133.217 18.5472 134.223 18.8483C135.228 19.1293 136.214 19.2699 137.18 19.2699C139.133 19.2699 140.109 18.7781 140.109 17.7945C140.109 17.3328 139.842 17.0016 139.31 16.8009C138.778 16.6002 137.959 16.4296 136.855 16.2891C135.554 16.0883 134.479 15.8575 133.631 15.5965C132.783 15.3356 132.044 14.8739 131.413 14.2115C130.801 13.5491 130.496 12.6057 130.496 11.3813C130.496 10.3576 130.782 9.45429 131.353 8.67145C131.945 7.86854 132.793 7.24629 133.897 6.80469C135.021 6.36309 136.342 6.14229 137.861 6.14229C138.985 6.14229 140.099 6.27276 141.203 6.53371C142.327 6.77458 143.254 7.11582 143.983 7.55742L142.445 10.8995C141.045 10.0966 139.517 9.69516 137.861 9.69516C136.875 9.69516 136.135 9.83567 135.642 10.1167C135.149 10.3977 134.903 10.759 134.903 11.2006C134.903 11.7024 135.169 12.0537 135.701 12.2544C136.234 12.4552 137.082 12.6459 138.245 12.8265C139.547 13.0473 140.612 13.2882 141.44 13.5491C142.268 13.79 142.988 14.2416 143.599 14.904C144.21 15.5664 144.516 16.4898 144.516 17.6741C144.516 18.6777 144.22 19.5709 143.629 20.3538C143.037 21.1366 142.169 21.7488 141.026 22.1904C139.902 22.612 138.561 22.8227 137.003 22.8227Z" fill="#151515"/>
<path d="M149.108 22.8227C148.299 22.8227 147.619 22.5417 147.067 21.9796C146.515 21.4176 146.239 20.715 146.239 19.872C146.239 19.0089 146.515 18.3163 147.067 17.7945C147.619 17.2525 148.299 16.9815 149.108 16.9815C149.916 16.9815 150.597 17.2525 151.149 17.7945C151.701 18.3163 151.977 19.0089 151.977 19.872C151.977 20.715 151.701 21.4176 151.149 21.9796C150.597 22.5417 149.916 22.8227 149.108 22.8227Z" fill="#BFBFBF"/>
</svg>
